<?xml version="1.0" encoding="utf-8"?>
<!-- Generator: Adobe Illustrator 15.1.0, SVG Export Plug-In . SVG Version: 6.00 Build 0)  -->
<svg version="1.2" baseProfile="tiny" id="Слой_1"
	 xmlns="http://www.w3.org/2000/svg" xmlns:xlink="http://www.w3.org/1999/xlink" x="0px" y="0px" width="340.157px"
	 height="340.157px" viewBox="0 0 340.157 340.157" xml:space="preserve">
<path d="M240.819,0H99.345C44.695,0,0,44.77,0,99.38v141.467c0,54.634,44.695,99.311,99.345,99.311h141.475
	c54.668,0,99.338-44.677,99.338-99.311V99.38C340.157,44.77,295.487,0,240.819,0L240.819,0z"/>
<g>
	<polygon fill="#FFFFFF" points="215.688,254.024 157.944,86.132 221.011,86.132 288.782,254.024 215.688,254.024 	"/>
	<polygon fill="#FFFFFF" points="127.037,237.364 121.024,254.024 51.375,254.024 123.981,86.132 146.409,86.132 163.907,136.888 
		142.49,196.177 184.265,196.177 198.436,237.364 127.037,237.364 	"/>
</g>
</svg>
